<?xml version="1.0" encoding="UTF-8"?><svg id="a" xmlns="http://www.w3.org/2000/svg" viewBox="0 0 250.9 115.8"><path d="m61.2,30.7l-41.7,44.6,2,2.4,2.5.8s1.6.8,1.8.8,3.4,0,3.4,0l3.6.4,3,.3,3.5,1.4h1.9l2.1-.8s5.6-1.6,5.9-1.6h6.3c0-.1,2.3-.8,2.3-.8l1.6-1,1.9-1.7.5-2.5-.6-42.4Z" style="fill:#fff; stroke-width:0px;"/><path d="m19.5,76L61.2,30.7H19.1v44.7l.4.6s0,0,0,0Z" style="fill:#156735; stroke-width:0px;"/><path d="m40.3,30h-21.9v42.9s.2,2.1.7,2.8c1,1.5,3.1,3.7,6.8,3.8,5.6,0,12.1,1.3,14.3,2.8h0s0,0,0,0c0,0,0,0,0,0h0c2.2-1.5,8.7-2.7,14.3-2.8,3.7,0,5.8-2.3,6.8-3.8.5-.8.7-2.8.7-2.8V30h-21.9Zm21,42.2s-.2,2-.7,2.7c-.9,1.4-3,3.6-6.6,3.6-5.4,0-11.6,1.2-13.8,2.7h0s0,0,0,0c0,0,0,0,0,0h0c-2.2-1.5-8.4-2.6-13.8-2.7-3.6,0-5.6-2.2-6.6-3.6-.5-.7-.7-2.7-.7-2.7V31h42.1v41.2Z" style="fill:#010101; stroke-width:0px;"/><path d="m21.1,13.6c.4,1.8.7,3.6,1.1,5.4,0,.2,0,.5.2.5.2,0,.2.2.2.4,0,.6,0,1.3.2,1.9.2,1.1.5,2.2.7,3.3,0,.1,0,.3-.2.2-.1,0-.3,0-.2.3,0,.2,0,.4,0,.5.1.3-.1.7.3.9.3.1.4,0,.6-.1.2,0,.2,0,.2.2,0,.4,0,.9,0,1.3,0,.3-.1.4-.4.3,0,.1,0,.2,0,.3,0,.3,0,.4,0,.5,0,0,.2.2.4.2.6,0,1.6-.2,1.7-.2.8-.1,1.6-.4,2.5-.4,0,0,.1,0,.1,0,.4-.3.8-.1,1.2-.3.4-.2.9,0,1.4-.2.8-.2,1.6-.3,2.5-.4,1.4,0,2.7-.2,4.1-.3.2,0,.4,0,.5,0,.8-.2,1.6,0,2.3-.1,1.5,0,3.1,0,4.6,0,.6,0,1.2.1,1.8.2,1.1.1,2.3.1,3.4.4.4,0,.8.1,1.2.2,1.8.3,3.7.5,5.5.8.2,0,.2,0,.2-.2,0-.3.1-.6,0-1,0-.2,0-.3-.2-.3-.2,0-.3-.1-.3-.3,0-.3.1-.6.2-.9,0-.3.1-.5.5-.5.2,0,.4,0,.4-.2,0-.3,0-.6,0-.8,0,0-.1,0-.1,0-.3.2-.4-.1-.7,0,0,0-.2,0-.2-.1,0,0,0-.2.1-.2.3,0,.2-.2.2-.3,0-.1,0-.3,0-.4.4-1,.5-2.1.8-3.2.5-1.8.9-3.6,1.3-5.4.3-1.4.6-2.7.9-4.1,0-.2,0-.3-.2-.3-.5,0-.9,0-1.4-.1,0,0-.2,0-.2,0,0,.3-.2.4-.2.7,0,.2,0,.4-.2.6,0,.3-.3.2-.5.2,0,0-.2,0-.2,0,0-.2.2-.2.3-.3.2,0,.3-.2.3-.4,0-.2,0-.4,0-.7,0-.2,0-.3-.2-.3-.7,0-1.3,0-2,0-.1,0-.2,0-.2.2.2.4-.1.7,0,1,0,0,0,.2-.1.2-.1,0-.1,0-.1-.2,0-.4,0-.9,0-1.3,0-.2,0-.3-.2-.3-.6,0-1.2,0-1.8,0-.1,0-.3,0-.2.2.1.3,0,.7,0,1,0,.3,0,.6.4.6,0,0,.3,0,.2.2,0,.1-.2,0-.2,0-.2,0-.5-.2-.6,0-.1.2,0,.4,0,.7,0,0,0,.1,0,.1,0,.3,0,.3-.3.3-.6,0-1.2-.1-1.8,0-.2,0-.3,0-.3-.2,0-.7,0-1.4.2-2.1,0-.3.2-.6.2-.9,0-.1,0-.2-.2-.3-.2,0-.4,0-.6,0-.5,0-.9,0-1.4-.1-.3,0-.3,0-.3.2,0,.4,0,.7,0,1.1,0,0,0,.3-.1.3-.2,0-.4,0-.6,0,0,0,0-.1,0-.1.4-.3.2-.7.3-1.1,0-.3,0-.4-.4-.4-.7,0-1.4,0-2.1-.1-.1,0-.4,0-.3.2,0,.4,0,.7,0,1.1,0,.2,0,.3-.2.2-.4,0-.2-.4-.2-.5,0-.3,0-.6,0-1,0-.2,0-.2-.2-.2-.6,0-1.2,0-1.8,0-.3,0-.4,0-.4.4,0,.9,0,1.7,0,2.6,0,.2,0,.3-.2.3-1,0-1.9.1-2.9.1-.8,0-.7.1-.7-.7,0-.8,0-1.7,0-2.5,0-.2,0-.4-.3-.4-.7.1-1.3,0-2,0,0,0-.2-.1-.3,0,0,.1,0,.2,0,.3.2.5,0,1,.2,1.5,0,.2-.1.2-.2.2-.2,0-.1-.1-.1-.2,0-.5,0-1,0-1.5-.7,0-1.4,0-2.1,0-.3,0-.4.1-.3.3,0,.2,0,.5,0,.7,0,.3,0,.6,0,.8,0,.1-.4.1-.7.2-.1-.5,0-1,0-1.4,0-.5,0-.5-.5-.5-.7,0-1.3.1-2,0-.2,0-.3,0-.3.2.1.4,0,.8,0,1.2,0,.1,0,.2.2.3.3,0,.3.3.3.5,0,.4,0,.8,0,1.2,0,.2,0,.3-.2.3-.3,0-.6,0-.8.1-.5,0-1,.1-1.5.2-.2,0-.3,0-.3-.2,0-.4,0-.8,0-1.2.1-.6,0-1.3,0-1.9,0-.2,0-.2-.3-.2-.3,0-.7.1-1,.2q-1.1.2-1,1.2s0,0,0,0c0,.2,0,.3.3.3.1,0,.3,0,.3.2,0,.2,0,.3-.2.4-.1,0-.3,0-.4.1-.1,0-.2.2-.3,0,0-.1-.2-.3,0-.4.3-.4,0-.8.1-1.2,0-.2,0-.3-.3-.2-.6,0-1.1.3-1.7.3-.1,0-.2,0-.2.3,0,.2,0,.5,0,.7,0,.2,0,.3.2.3.2,0,.3.1.2.3,0,.2,0,.3,0,.5,0,.4-.2.2-.4.3-.2,0-.3,0-.3-.3,0-.5-.1-1,0-1.5,0-.2-.1-.4-.4-.3-.6.1-1.2.3-1.8.3-.2,0-.3.2-.3.3.3.6.3,1.2.4,1.8Z" style="fill:#010101; stroke-width:0px;"/><path d="m40.3,94.6c-5.1,0-10.2,0-15.2,0-.3,0-.4,0-.4-.4,0-1.2,0-2.5,0-3.7,0-.2,0-.3.3-.4.6-.3,1.3-.5,2-.5,9.3,0,18.5,0,27.8,0,.5,0,.8.2,1.2.3.1,0,.2.1.2.3,0,1.4,0,2.7,0,4.1,0,.2,0,.3-.2.2,0,0-.2,0-.3,0-5.1,0-10.2,0-15.2,0Z" style="fill:#146735; stroke-width:0px;"/><path d="m18.2,91.9c.6-.4,1.2-.9,1.8-1.3.3-.3.7-.5,1-.8.2-.2.2-.2,0-.3-.8-.6-1.6-1.2-2.5-1.8-.2-.1-.4-.3-.6-.4,0,0-.1,0,0-.2,0,0,0,0,.1,0,0,0,.1,0,.2,0,4.3,0,8.6,0,12.9,0,0,0,0,0,.1,0,0,0,.2,0,.3,0,0,.1-.1.2-.2.2-.6.2-1.2.4-1.8.7-1.6.6-3.2,1.2-4.8,1.9-.3.1-.4.3-.4.6,0,.4,0,.8,0,1.3,0,.1,0,.2-.2.2-1.9,0-3.9,0-5.8,0,0,0,0,0,0,0Z" style="fill:#146735; stroke-width:0px;"/><path d="m63.5,87.3c-1.5.8-3,1.6-4.6,2.5,1.5.7,3,1.4,4.5,2.1-1.7,0-3.2,0-4.8,0s-1.3,0-2,0c-.3,0-.4,0-.4-.4,0-.4,0-.9,0-1.3,0-.2,0-.3-.3-.4-2-.8-3.9-1.6-5.9-2.4,0,0-.2,0-.3-.2h13.6s0,0,0,0Z" style="fill:#146735; stroke-width:0px;"/><path d="m41.4,87.2s0,0,.1,0c.4-.6.9-.5,1.4-.3.2,0,.3.1.5.2.4.2.7.1.9-.2,0,0,.1-.1.2-.2,0,0,.1,0,.2,0,0,0,0,.1,0,.2,0,1.1-.6,1.6-1.7,1.2-.1,0-.3-.1-.4-.2-.4-.2-.8-.3-1.2.1,0,0-.1,0-.2,0-.2,0-.3.1-.5,0-.1,0,0-.3,0-.4,0-1,.6-1.8,1.5-2.2.3-.1.6-.3.8-.6.3-.3.3-.8.1-1.1-.2-.3-.6-.4-1-.4-.2,0-.3,0-.3.2,0,.2,0,.3.2.4,0,0,.2.2.2.2.1.2,0,.3,0,.5,0,.2-.2.3-.4.2,0,0,0,0,0,0-.3,0-.7.2-.9-.3-.2-.5,0-1.1.3-1.4.8-.6,2.3-.6,3,0,.8.7.5,1.8-.5,2.3-.4.2-.9.4-1.3.5-.6.3-.9.7-.9,1.2Z" style="fill:#020202; stroke-width:0px;"/><path d="m46.3,84.7c.5-.2,1-.4,1.5-.2.9.2,1.4.8,1.4,1.7,0,.9-.5,1.5-1.4,1.7-.5.1-1,.1-1.5,0-.7-.2-1.1-.8-.9-1.5,0-.3.2-.4.5-.4.3,0,.6,0,.8.3.1.3,0,.5-.1.7,0,0-.2.2-.1.3,0,.1.2.2.3.2.7,0,1.1-.3,1.1-1.1,0-.2,0-.3,0-.5-.2-.8-.6-1-1.4-.7-.7.3-.8.3-.7-.5,0-.6.1-1.2.1-1.8,0-.3.2-.4.5-.3,0,0,.1,0,.2,0,.7.2,1.4.2,2.1,0,.1,0,.2,0,.3,0,0,0,0,.2,0,.3-.2.5-.6.8-1.2.8-.4,0-.7,0-1.1,0-.2,0-.3,0-.2.3,0,.2,0,.4,0,.7Z" style="fill:#010201; stroke-width:0px;"/><path d="m34.5,84.8c0,.6,0,1.2,0,1.8,0,.6,0,.6.6.6.3,0,.4,0,.4.4,0,.3,0,.3-.3.3-.9,0-1.7,0-2.6,0-.2,0-.3,0-.2-.2,0-.2-.2-.4.2-.4.6,0,.6-.1.6-.7,0-.7,0-1.4,0-2.1,0-.2,0-.3-.3-.2,0,0,0,0,0,0-.2,0-.4.2-.4,0,0-.2-.2-.5.2-.7.4-.2.6-.5.8-.8,0-.2.9-.3,1.1-.2,0,0,0,.2,0,.2,0,.7,0,1.3,0,2Z" style="fill:#010101; stroke-width:0px;"/><path d="m54,89.2c-.2.1-.3,0-.4,0-1.2,0-2.4,0-3.6,0-.3,0-.4-.1-.4-.4,0-.5,0-1,0-1.5,1.5.6,2.9,1.2,4.4,1.8Z" style="fill:#146735; stroke-width:0px;"/><path d="m31.5,87.6c0,.5,0,1,0,1.5,0,.1,0,.2-.2.2-1.4,0-2.7,0-4.1,0,0,0,0,0,0,0,1.4-.5,2.9-1.1,4.4-1.6Z" style="fill:#146735; stroke-width:0px;"/><path d="m44.2,23.2c-.4,0-.9,0-1.3,0-.2,0-.3-.2-.2-.3,0-.6.2-1.2.3-1.7,0-.3,0-.7,0-1,0-1,0-1.9,0-2.9,0-.3,0-.6,0-.9,0-.1,0-.2.2-.2,0,0,.2,0,.2-.2,0,0,0-.2-.2-.1-.3,0-.3-.1-.3-.3,0-.1,0-.3,0-.4,0-.3.1-.4.4-.4.1,0,.3,0,.3-.1,0-.1-.2-.3-.3-.3-.2,0-.3,0-.2-.3,0-.3,0-.6,0-.9,0-.2,0-.3.3-.3,0,0,0,0,.1,0,.1,0,.4.1.3-.1,0-.1-.3-.3-.4-.2-.3,0-.2,0-.2-.2,0-.2,0-.5,0-.7,0-.3.1-.4.4-.3,0,0,.2,0,.2,0,0-.1,0-.1-.2-.1-.4,0-.5-.2-.4-.5,0-.3-.1-.7,0-.8.2-.1.5,0,.8,0,.1,0,.3,0,.4,0,.5,0,.7.1.5.6-.1.3.1.6-.2.8,0,0,0,.3.2.2.2,0,.3,0,.5,0,.2,0,.4,0,.4-.3,0-.3,0-.6,0-1,0-.2,0-.3.3-.3.3,0,.6,0,.9,0,.2,0,.4,0,.7,0,.1,0,.3,0,.3,0,0,.2.2.6-.2.7-.2.1-.2.3-.2.4,0,.2,0,.4.4.4,1,0,1,0,1-1,0-.6,0-.6.6-.5.3,0,.6.1.9,0,.2,0,.2,0,.2.2,0,.3-.1.6-.2.9,0,.2-.3,0-.4,0-.2,0-.5-.1-.5.2,0,.2.3.1.5.1.4,0,.5,0,.4.5,0,.2,0,.4,0,.6,0,.3,0,.4-.4.4-.6,0-1.2,0-1.8,0-.1,0-.3,0-.3.2,0,.2.2.1.3.1.3,0,.4,0,.3.4,0,.2-.2.5-.1.8,0,.1,0,.2-.1.2-.1,0-.2,0-.2.2,0,.1.2.1.3.1.5,0,1,0,1.5,0,.3,0,.4.1.3.3,0,.3.1.6,0,.7-.2.1-.5,0-.8,0-.3,0-.7,0-1,0-.1,0-.3,0-.2.2.3.4.1.9,0,1.3,0,.3,0,.4.3.4.4,0,.8,0,1.2,0,.2,0,.3,0,.3.2,0,.4,0,.7-.1,1.1,0,.2-.2.2-.3.2-.4,0-.8,0-1.2,0-.2,0-.3,0-.3.3,0,.3,0,.6,0,1,0,.2,0,.4.3.4.4,0,.8,0,1.2,0,.2,0,.2,0,.2.2,0,.8,0,.8-.7.8-.3,0-.7,0-1,0-.2,0-.2.1-.2.2.1.2,0,.4,0,.6,0,.3,0,.4-.4.4-.3,0-.3,0-.3-.3,0-1.1.2-2.2.2-3.2,0-.7-.4-1.5-1-1.7-.4-.1-.9,0-1.3.4-.4.5-.6,1-.6,1.6,0,.8,0,1.5,0,2.3,0,.2-.2.4-.1.6-.1.2-.3.1-.5,0Z" style="fill:#fff; stroke-width:0px;"/><path d="m32.3,13.4c0,0-.1,0-.2,0-.5,0-.6,0-.6-.6,0-.5,0-1,0-1.5,0-.1,0-.3-.1-.3-.4,0-.3-.2-.3-.4,0-.1,0-.2,0-.3,0-.1,0-.2.2-.2.4,0,.9,0,1.3-.1.3,0,.5.1.5.5,0,.4,0,.8,0,1.3,0,.2,0,.2.2.2.4,0,.7,0,1.1-.2.1,0,.1-.2.1-.4,0-.4,0-.8,0-1.2,0-.2,0-.2.2-.2.5,0,.9.1,1.4,0,.2,0,.2,0,.1.2,0,.4,0,.7,0,1.1,0,.1,0,.3.1.3.2.1.5,0,.7,0,.1,0,.1-.2.1-.4,0-.4,0-.8,0-1.2,0-.2,0-.3.3-.3.3,0,.7,0,1,0,.1,0,.2,0,.2.2,0,.9,0,1.7.2,2.6,0,.3,0,.4-.4.4-.4,0-.9,0-1.3,0-.1,0-.2,0-.3.1,0,0,0,.1,0,.2,0,.1.1,0,.2,0,.2,0,.3,0,.3.3,0,.2,0,.3,0,.5,0,.3,0,.6-.4.5,0,0-.1,0-.1.1,0,.1.1.1.2.1.6,0,1.1,0,1.7,0,.2,0,.3,0,.4.3,0,.9,0,.9-.8.9-.4,0-.7,0-1.1,0-.1,0-.3,0-.3.1,0,.1.1.2.2.2.5,0,.5.2.5.6,0,.2,0,.4,0,.6,0,.2,0,.5-.3.4,0,0,0,0,0,.1,0,0,0,0,.1.1.3,0,.5.1.8,0,0,0,.2,0,.3,0,.9,0,.9,0,.8.9,0,.1,0,.2-.2.2-.4,0-.8.1-1.2.2,0,0-.2,0-.2,0,0,0,0,.2,0,.2.4,0,.2.4.2.6,0,.4,0,.5.6.5.8,0,.9,0,.8.9,0,.1,0,.1-.2.2-.3,0-.7-.1-.9,0-.2.2,0,.6,0,.9,0,.2,0,.2-.2.2-.6,0-.6,0-.6-.6,0-1-.1-2.1,0-3.1,0-1-1.1-1.7-1.9-1.2-.4.3-.8.7-.8,1.3,0,1.2,0,2.3,0,3.5,0,.2,0,.3-.3.4-.5,0-1,.2-1.5.3,0,0,0,0,0,0-.3-.2,0-.6-.2-.8,0-.1,0-.1.2-.1.2,0,.4.1.4,0,0-.2-.3,0-.4-.1-.2-.2-.3-.4-.3-.6,0-.3.1-.2.3-.2.2,0,.5.1.5-.2,0-.2-.3,0-.5,0-.3,0-.4-.1-.4-.4,0-.2,0-.5,0-.7,0-.2.2-.2.3-.2,0,0,.3-.1.2-.2,0-.2-.2,0-.3,0-.3,0-.3-.1-.3-.3,0-.2,0-.3,0-.5,0-.3,0-.5.4-.5,0,0,.3,0,.2-.1,0-.2-.2-.1-.3,0-.4,0-.6,0-.5-.5,0-.2-.1-.4,0-.6,0-.2,0-.3.3-.3,0,0,.2,0,.3,0,.2,0,.2-.2.2-.3-.1,0-.1-.1-.3,0-.5.1-.6,0-.6-.5,0-.2,0-.4,0-.6,0-.2,0-.2.2-.2.2,0,.3,0,.2-.2,0-.2-.1,0-.2,0-.2,0-.3,0-.3-.2,0-.2,0-.4,0-.6,0-.3,0-.5.4-.4,0,0,.2,0,.3,0,0,0,.1-.1.1-.2,0,0,0,0-.1,0Z" style="fill:#fff; stroke-width:0px;"/><path d="m22.8,11.6c0,.6.1,1.2.2,1.8,0,0,0,.1,0,.2,0,0,1,0,1.1,0,0,0,.1-.1.1-.2,0-.4,0-.7,0-1.1,0-.1,0-.2-.2-.2-.4,0-.2-.2-.2-.4,0-.2.1-.2.2-.3.4,0,.8-.2,1.2-.2,0,0,.2,0,.1,0,0,.3.1.6,0,.8-.3.4,0,.6.1.9,0,.3.4,0,.5,0,0,0,0,0,.1,0,.8-.3.8-.3.7-1.1,0-.2,0-.2-.3-.2-.2,0-.3,0-.3-.2,0-.2-.2-.5.2-.5.4,0,.8-.1,1.2-.2.3,0,.3,0,.3.2,0,.7,0,1.3,0,2,0,0,0,0,0,0,0,.3.2.6,0,.9-.2.2-.5.3-.8.3-.3,0-.6.3-1,.3-.1,0-.2.1-.1.3.3,1.5.7,3,1,4.6.3,1.3.6,2.7.8,4,0,.3,0,.6.2.9,0,.2,0,.2-.2.3-.6.1-1.2.3-1.8.4-.1,0-.2,0-.2-.2-.1-.5-.2-1-.3-1.5-.1-.9-.3-1.7-.5-2.6,0-.4-.5-.5-.8-.7-.3-.2-.4-.3-.3-.6,0-.3,0-.6,0-.9,0-.2,0-.3-.3-.3-.3,0-.6,0-.9.2-.1,0-.2,0-.3-.2,0-.1,0-.3,0-.4q0-.6.5-.7c.7-.2.8-.3.6-1.1,0-.1,0-.2,0-.4,0-.5-.2-.6-.6-.5-.2,0-.5,0-.7.2-.2.1-.2,0-.3-.2-.2-.3-.1-.7-.2-1,0-.1,0-.1.1-.2.2,0,.4-.1.6-.1.2,0,.2-.1.2-.3,0-.1-.1-.1-.3,0-.1,0-.3,0-.4,0-.3.1-.4,0-.4-.3,0-.4,0-.7-.2-1.1,0-.2,0-.2.2-.3.5,0,.9-.2,1.4-.3Z" style="fill:#fff; stroke-width:0px;"/><path d="m57.4,19.7c-.3.1-.4.4-.6.6-.2.2-.4.4-.7.2,0,0-.2,0-.2,0,0,.1,0,.1.2.2.4.1.6.5.3.8-.2.2-.3.2-.5,0-.1,0-.2,0-.4-.2,0,0-.1-.2-.2,0,0,0,0,0,0,.1,0,.1.1,0,.2,0,.2,0,.3,0,.4.2.3.3.4.9.2,1.3,0,.1-.2,0-.3,0-.2,0-.4-.2-.6,0,0,.1.2.2.3.2.2,0,.4.1.5.2,0,.2,0,.5,0,.7,0,.2-.1.3-.3.2-.5-.2-1-.2-1.5-.3-.3,0-.4-.1-.3-.4.6-2.1,1-4.2,1.6-6.3,0-.4,0-.8.3-1.1.2-.5.3-1,.4-1.5,0,0,0,0,0-.1,0-.2.2-.5,0-.7-.1-.1-.4-.1-.7-.2-.5-.1-1-.2-1.5-.2-.5,0-.2-.4-.3-.6,0-.1,0-.4.4-.3,0,0,0,0,0,0,.2,0,.5.1.6-.1,0-.1-.1-.4-.1-.6,0-.2-.2-.2-.4-.2-.3,0-.3-.2-.3-.4,0-.7,0-.7.7-.7s.8,0,.8.8c0,.3,0,.6,0,.8,0,0,0,.1,0,.1.2.1.4,0,.6,0,.2,0,.2-.2.2-.3,0-.3.2-.6.1-.9,0-.1,0-.1.2-.1.5,0,1,0,1.5,0,0,0,.2,0,.2.1,0,.2.2.6-.2.7-.4.1-.3.4-.3.7,0,0,0,.1,0,.2.3.1.6,0,.9,0,.2,0,.3-.2.3-.4,0-.3.2-.5.2-.8,0-.4.3-.4.5-.3,0,0,.2,0,.2,0,.5,0,.5,0,.4.6-.2.7-.4,1.5-.5,2.2,0,.2,0,.2-.2.2-.6,0-1.2,0-1.8-.2-.1,0-.2,0-.2,0,0,.2,0,.2.2.2.4,0,.5.1.3.5,0,.1,0,.3,0,.4-.1.5-.1.5-.7.5,0,0-.1.1,0,.2.2.1.4,0,.6,0,.5,0,1,0,1.5,0,0,.4-.2.7-.2,1,0,.1,0,.2-.3.2-.6,0-1.1,0-1.7,0,0,0-.2,0-.2.2,0,0,0,.2.2.1.3,0,.3.1.3.3,0,.2,0,.5,0,.7,0,.3-.2.4-.4.3-.2,0-.3,0-.4,0,0,.1,0,.2,0,.2.1.1.3,0,.4,0,.1,0,.3,0,.3.1,0,0,0,.1,0,.2Z" style="fill:#fff; stroke-width:0px;"/><path d="m35.7,26.8c1.1,0,2.3-.2,3.5-.2,1.4,0,2.9,0,4.3,0,.2,0,.4,0,.6,0,1.1.1,2.2.1,3.3.3.4,0,.7,0,1.1,0,1.5,0,3,.4,4.6.6,1,.1,2,.3,3,.4.3,0,.6.2,1,.2.2,0,.1.3.1.5,0,.1,0,.4-.3.3-.6-.1-1.3,0-2-.3-.5-.2-1.1-.3-1.7-.2-.5,0-1-.3-1.6-.3-.3,0-.7,0-1-.1-.6-.2-1.2-.2-1.9-.3-.3,0-.7,0-1,0-1.5-.2-3-.2-4.5-.2-1,0-1.9,0-2.9,0-1.2,0-2.4.1-3.7.2-.6,0-1.1,0-1.7,0-.4,0-.8,0-1.1.2-.3.1-.6,0-.9,0-.9.2-1.9.2-2.8.4-.7.1-1.3.2-2,.4-.7.1-1.4.3-2.1.3-.5,0-1,.2-1.6.3-.2,0-.4,0-.4-.3,0-.3.2-.3.3-.3,1.5-.3,3.1-.6,4.6-1,.7-.2,1.3-.2,2-.4,1-.2,2-.3,3.1-.5.5,0,.9-.2,1.6-.2Z" style="fill:#fff; stroke-width:0px;"/><path d="m57.5,25.9c-1-.1-2-.4-3-.6-1.3-.2-2.5-.6-3.8-.7-1,0-2.1-.1-3.1-.2-1.1,0-2.2,0-3.3-.1-1.5,0-3.1,0-4.6,0-.9,0-1.8,0-2.7,0-.5,0-1,0-1.4,0-.9,0-1.8.2-2.8.3-.8.1-1.6.2-2.4.3-.7.1-1.4.3-2,.4-1,.2-2,.4-3,.7-.5.2-1.1.3-1.6.5-.2,0-.3,0-.3-.2,0-.7,0-.7.8-.9,1.2-.3,2.4-.6,3.6-.8.6,0,1.1-.1,1.7-.2,1-.2,1.9-.4,2.9-.5,1.2-.2,2.4-.3,3.5-.4,1,0,1.9-.2,2.9-.2,1.2,0,2.3,0,3.5.2.4,0,.7.1,1.1,0,.9,0,1.9,0,2.8,0,.8,0,1.6,0,2.5.1,2.5.2,5,.6,7.4,1.3.4.1.9.2,1.3.3,0,0,0,.2,0,.3,0,0,0,.1-.1,0Z" style="fill:#fff; stroke-width:0px;"/><path d="m23.7,21c.5,0,1.1.5,1.2.9.2.9.4,1.8.5,2.7,0,.2,0,.3-.2.3-.3,0-.6.1-1,.2-.2,0-.3,0-.4-.2-.1-.5-.2-1.1-.3-1.6-.1-.6-.3-1.1-.3-1.7,0-.6-.1-.6.5-.6Z" style="fill:#fff; stroke-width:0px;"/><path d="m47.1,21.5c0,.5,0,1.1,0,1.6,0,.3,0,.4-.4.3,0,0,0,0-.1,0-.2,0-.5.1-.6,0,0-.2,0-.4,0-.7,0-.6,0-1.3,0-1.9,0-.4-.1-.7,0-1,0-.2.2-.3.4-.3.8,0,.7-.2.8.7,0,.1,0,.2,0,.3,0,.3,0,.7,0,1,0,0,0,0,0,0Z" style="fill:#fefefe; stroke-width:0px;"/><path d="m28.9,14.7c0-.8,0-.7.7-.9.5,0,.9,0,1.4-.2.2,0,.3,0,.3.2,0,.3,0,.5,0,.8,0,.4-.3.6-.7.5,0,0-.2-.1-.2,0-.4.4-.9.2-1.4.4-.1,0-.2,0-.1-.1,0-.2,0-.4,0-.6Z" style="fill:#fff; stroke-width:0px;"/><path d="m51.5,26c.3.1.6.1.9.1.7,0,1.3.3,2,.2.2,0,.3,0,.3.3,0,.3-.1.5-.1.7,0,.2-.2.2-.3.1-.7-.2-1.4-.2-2.1-.4-.8-.2-.6,0-.7-.8,0,0,0-.2,0-.3Z" style="fill:#fdfdfd; stroke-width:0px;"/><path d="m24.6,28.3c0-.7,0-.7.6-.9.8-.2,1.6-.4,2.5-.6.2,0,.4,0,.3.3,0,.6-.2.9-.8.9-.7,0-1.3.3-1.9.4,0,0-.2,0-.3,0-.2,0-.3.1-.4,0Z" style="fill:#fefefe; stroke-width:0px;"/><path d="m51.5,18.2c-.2,0-.5,0-.7,0-.3,0-.3-.1-.3-.4,0-.3.1-.7,0-1,0-.1,0-.2.2-.2.6,0,1.2,0,1.8.2.1,0,.1.1.1.2,0,.3,0,.6,0,.8,0,.2-.1.3-.3.3-.3,0-.5,0-.8,0Z" style="fill:#fff; stroke-width:0px;"/><path d="m39.7,26.4c-.7,0-1.4,0-2.1.1-.2,0-.2,0-.3-.2,0,0,0-.1,0-.2,0-.5,0-.4.5-.6.4-.1.7,0,1.1,0,.4,0,.9,0,1.4,0,.2,0,.3,0,.3.3,0,.7,0,.7-.6.7-.1,0-.2,0-.3,0,0,0,0,0,0,0Z" style="fill:#fefefd; stroke-width:0px;"/><path d="m48.2,25.8c1,0,1.9.1,2.8.2.1,0,.2,0,.2.2,0,.1,0,.3,0,.4,0,.3-.1.3-.4.3-.5,0-1.1-.2-1.6-.2-.4,0-.8-.1-1.2-.1-.2,0-.2,0-.2-.3,0-.6,0-.6.4-.6Z" style="fill:#fffffe; stroke-width:0px;"/><path d="m40.3,14.4c0,0-.2,0-.3,0-.9,0-1,0-.9-1,0,0,0-.2.1-.2.2,0,.4,0,.5,0,.5,0,1,0,1.5,0,.2,0,.3,0,.3.3,0,.3-.1.6,0,.9,0,.2-.1.2-.3.2-.3,0-.7,0-1,0Z" style="fill:#fffefe; stroke-width:0px;"/><path d="m42.5,26.4c-.4,0-.8,0-1.3,0-.3,0-.4,0-.4-.4,0,0,0-.1,0-.2,0-.3,0-.5.4-.4.3,0,.5,0,.8,0,.6,0,1.2.2,1.8.2.3,0,.2.3.2.5,0,.2,0,.3-.3.3-.5,0-.9,0-1.4,0Z" style="fill:#fefefe; stroke-width:0px;"/><path d="m29.4,17.8c0-.7,0-.7.8-.8.4,0,.7-.1,1.1-.1.1,0,.2,0,.2.1,0,.4,0,.7,0,1,0,.2,0,.3-.3.2-.5,0-1,.1-1.4,0-.2,0-.3.3-.4.1-.1-.1,0-.4,0-.6Z" style="fill:#fff; stroke-width:0px;"/><path d="m53.3,16.6c-.4,0-.8-.1-1.3-.2,0,0-.2,0-.1-.2,0,0,0-.2,0-.3q0-.9.9-.9c.4,0,.7,0,1.1,0,.2,0,.3,0,.2.3,0,.3-.2.5-.3.8,0,.3-.2.4-.5.3Z" style="fill:#fff; stroke-width:0px;"/><path d="m28.2,27.1c0-.3.1-.4.5-.5.7,0,1.3-.2,2-.4.2,0,.4,0,.4.3,0,.6,0,.7-.6.7-.5,0-1.1.2-1.6.3-.6.1-.6.1-.6-.5Z" style="fill:#fdfdfd; stroke-width:0px;"/><path d="m31.3,26.7c0-.4,0-.5.4-.6.7-.1,1.4-.1,2.2-.3.1,0,.3,0,.3.2,0,.2,0,.4,0,.6,0,.1,0,.1-.2.2-.8.1-1.6.3-2.4.3-.4,0-.2-.3-.2-.4Z" style="fill:#fefdfd; stroke-width:0px;"/><path d="m30.6,19.2c0,.7,0,.7-.7.7-.4,0-.7,0-1.1.2-.2,0-.3,0-.3-.2,0-.3-.1-.5-.2-.8,0-.1,0-.3.2-.3.6,0,1.1-.2,1.7-.3.3,0,.5,0,.4.4,0,0,0,.1,0,.2Z" style="fill:#fefefe; stroke-width:0px;"/><path d="m40.3,17.5h-.2c-1,0-1,0-.9-1,0-.1,0-.2.2-.2.6,0,1.2,0,1.7,0,.2,0,.4,0,.4.3,0,.9,0,.9-.9.9h-.2Z" style="fill:#fefefe; stroke-width:0px;"/><path d="m54.5,18.5c-.5,0-1-.2-1.5-.3-.1,0-.1-.1-.1-.2,0-.3.1-.6,0-1,0-.2.1-.2.2-.1.5,0,1,.1,1.6.2.2,0,.3,0,.2.4-.1.3-.2.6-.2.9,0,.2-.2,0-.3,0Z" style="fill:#fffefe; stroke-width:0px;"/><path d="m41.7,19c-.3,0-.6,0-.9,0-.1,0-.2,0-.2-.2,0-.3,0-.6,0-.9,0,0,0-.1.1-.2.6,0,1.2,0,1.8,0,.1,0,.2,0,.2.2,0,0,0,0,0,.1q0,1-1,1Z" style="fill:#fff; stroke-width:0px;"/><path d="m27.9,16.4c0-.7,0-.8.8-.6.4.1.8-.1,1.3-.2.2,0,.4,0,.4.3,0,.7,0,.7-.7.8-.5,0-1,.2-1.5.3-.1,0-.2,0-.2-.1,0-.2,0-.3,0-.5Z" style="fill:#fff; stroke-width:0px;"/><path d="m29.2,17.8c0,.7,0,.7-.7.8-.3,0-.7,0-1,.1-.2,0-.1,0-.2-.1,0-.3-.1-.6-.2-.9,0-.1,0-.2.2-.2.6,0,1.1-.2,1.7-.3.1,0,.2,0,.2.2,0,.1,0,.3,0,.4Z" style="fill:#fff; stroke-width:0px;"/><path d="m29.3,25.7c0-.3,0-.3.3-.4.9-.1,1.7-.3,2.5-.4.4,0,.6.2.5.6,0,0,0,.1-.2.1-.9.2-1.8.3-2.7.5-.4,0-.5,0-.4-.4Z" style="fill:#fdfdfd; stroke-width:0px;"/><path d="m45.1,25.6c.8,0,1.5.2,2.2,0,.2,0,.2,0,.3.3,0,.6-.2.7-.7.6-.4-.1-.9,0-1.4-.1-.3,0-.6,0-.9-.1-.3,0-.1-.4-.2-.6,0-.2,0-.2.2-.2.2,0,.4,0,.5,0Z" style="fill:#fefefd; stroke-width:0px;"/><path d="m46.6,24.7c.9,0,1.8.2,2.6.2,0,0,.1,0,.1,0,0,.2,0,.4,0,.7,0,.2-.2.1-.4.1-.8-.1-1.6,0-2.5-.2-.4,0-.5,0-.4-.6q0-.2.5-.2Z" style="fill:#fdfdfd; stroke-width:0px;"/><path d="m49.6,24.9c.8-.1,1.6,0,2.4.2.3,0,.6.2.9.2.4,0,.2.3.2.4,0,.2-.1.2-.3.2-.7,0-1.4-.1-2.2-.2-.2,0-.4,0-.6,0-.3,0-.4-.1-.4-.4,0-.1,0-.2,0-.4Z" style="fill:#fefefe; stroke-width:0px;"/><path d="m41.7,14.7c.3,0,.6,0,.9,0,.2,0,.3,0,.3.3,0,.9,0,.9-.9.9-.3,0-.7,0-1,0-.2,0-.3,0-.3-.3,0-.9,0-.9.9-.9s0,0,.1,0Z" style="fill:#fff; stroke-width:0px;"/><path d="m53.6,18.9c0,.3-.2.7-.2,1,0,0,0,0-.2,0-.5-.1-1-.2-1.6-.2-.3,0-.3,0-.2-.3.1-.3.2-.6.3-.8,0-.1,0-.2.2-.2.3,0,.6,0,1,.1.2,0,.4.1.6,0,.2,0,.2,0,.2.2Z" style="fill:#fefefe; stroke-width:0px;"/><path d="m40.3,20.5c-1,0-1,0-1.1-1,0-.2,0-.1.2-.1.3,0,.6,0,.9,0,.3,0,.6,0,.9,0,.2,0,.4,0,.3.3,0,0,0,.2,0,.3q0,.6-.7.6c-.2,0-.4,0-.6,0Z" style="fill:#fffefe; stroke-width:0px;"/><path d="m28.6,14.6c0,.7,0,.8-.8.8-.2,0-.5,0-.7,0-.2,0-.5,0-.5-.3,0-.1,0-.3,0-.5,0-.1,0-.2.2-.2.4-.2.9-.4,1.3-.5.4-.1.6,0,.6.4,0,0,0,.2,0,.3Z" style="fill:#fffefe; stroke-width:0px;"/><path d="m35.5,26.6c-.3,0-.6,0-.9,0,0,0-.2,0-.2,0-.1-.2,0-.5,0-.7,0-.1,0-.1.2-.2.4-.2.8,0,1.2-.1.3-.1.7,0,1,0,.3,0,.4.2.3.4,0,.2,0,.5-.3.5-.4,0-.8.2-1.3,0Z" style="fill:#fdfdfd; stroke-width:0px;"/><path d="m40.6,24.5c.5,0,1,0,1.6,0,.2,0,.3,0,.2.2,0,.2,0,.4-.2.4-.3,0-.6,0-.9,0-.7,0-1.5,0-2.2,0-.4,0-.3-.2-.3-.4,0-.2,0-.3.3-.3.5,0,1,0,1.6,0Z" style="fill:#fff; stroke-width:0px;"/><path d="m45.2,25.4c-.7,0-1.3,0-2,0-.4,0-.6-.4-.5-.7,0-.1.1,0,.2,0,.9,0,1.8,0,2.8.1.4,0,.2.4.2.5,0,.2,0,.2-.2.2-.1,0-.3,0-.4,0Z" style="fill:#fefefe; stroke-width:0px;"/><path d="m35.5,21.3c0-.5,0-1,0-1.6,0-.2,0-.3.3-.3.2,0,.4,0,.4.3,0,1.1,0,2.1,0,3.2,0,.3-.2.2-.4.2-.2,0-.3,0-.3-.2,0-.5,0-1.1,0-1.6,0,0,0,0,0,0Z" style="fill:#fefefe; stroke-width:0px;"/><path d="m51.6,13.7c.5,0,.9.1,1.4,0,0,0,.1,0,.1,0,.1.3,0,.5,0,.7,0,0,0,.2-.2.2,0,0-.1,0-.2,0-.5,0-1.1,0-1.6,0-.2,0-.3,0-.3-.3,0,0,0,0,0-.1q0-.7.8-.7Z" style="fill:#fefefe; stroke-width:0px;"/><path d="m26.7,26c.8-.2,1.6-.3,2.4-.5,0,.7,0,.8-.6.9-.7.2-1.4.4-2.2.5,0-.2,0-.4,0-.6,0-.2,0-.2.2-.2,0,0,.2,0,.2,0Z" style="fill:#fdfcfc; stroke-width:0px;"/><path d="m55.4,15.2c-.6-.1-1.3-.3-1.9-.4-.2,0-.2-.1-.1-.2,0-.2,0-.4.1-.6,0-.2.2-.1.3-.1.6.1,1.2.2,1.8.3.2,0,.3.1.2.3,0,.2,0,.4-.1.5,0,.1,0,.2-.2.2Z" style="fill:#fffffe; stroke-width:0px;"/><path d="m41.6,20.8c.2,0,.4,0,.6,0,.4,0,.5,0,.4.5,0,0,0,.1,0,.2,0,.5,0,.5-.6.5,0,0-.2,0-.3,0-.3,0-.7.1-.9,0-.2-.2,0-.6-.1-.9,0-.2,0-.2.2-.2.3,0,.5,0,.8,0Z" style="fill:#fefdfd; stroke-width:0px;"/><path d="m37.2,25.3c-.4,0-.7,0-1.1,0-.2,0-.4,0-.3-.3,0-.2-.2-.5.3-.5.7,0,1.4,0,2.1,0,.2,0,.5,0,.4.2,0,.2,0,.5-.4.5-.4,0-.7,0-1.1,0Z" style="fill:#fefefe; stroke-width:0px;"/><path d="m57,26.3c0,.4-.1.5-.5.4-.9-.3-1.7-.7-2.7-.6-.2,0-.4,0-.5-.2,0-.3,0-.4.4-.4,1,.2,2.1.4,3.1.6.2,0,.2.2.2.3Z" style="fill:#fdfdfd; stroke-width:0px;"/><path d="m51.6,21.4c.5,0,1,.2,1.5.4,0,0,0,0,0,0,0,.3-.1.5-.2.8,0,.2-.2.1-.4,0-.4-.2-.8,0-1.2-.2-.2,0-.3,0-.2-.3,0-.2.2-.4.2-.7,0-.2.2,0,.3-.1Z" style="fill:#fefdfd; stroke-width:0px;"/><path d="m33.5,25.6c-.7,0-.7,0-.6-.4,0-.2.1-.3.3-.3.5,0,.9-.2,1.4-.1.2,0,.4-.2.7-.1.2,0,.3.2.3.4,0,.2,0,.4-.3.4-.7,0-1.3.1-1.8.2Z" style="fill:#fdfcfc; stroke-width:0px;"/><path d="m54.2,20.7c0,.2-.1.5-.2.7,0,.2-.2.1-.2.1-.5-.1-1-.3-1.4-.4-.1,0-.2-.1-.1-.2,0-.3,0-.5.2-.8,0-.1.2,0,.3,0,.4.1.9.2,1.3.3.2,0,.2.1.2.3Z" style="fill:#fff; stroke-width:0px;"/><path d="m49.4,16.6c.8,0,.8,0,.8.9,0,.3-.1.5-.4.4,0,0-.1,0-.2,0-.3,0-.7.1-.9,0-.2-.3,0-.7,0-1.1,0-.1,0-.2.2-.2.2,0,.4,0,.6,0Z" style="fill:#fefefe; stroke-width:0px;"/><path d="m37.3,13.9s0,0,0-.1c0-.5,0-.5.5-.5.2,0,.4-.1.6,0,.2,0,.3.1.3.3,0,.2,0,.5,0,.7,0,.3-.1.4-.4.4-.1,0-.3,0-.4,0q-.7,0-.7-.7Z" style="fill:#fefefd; stroke-width:0px;"/><path d="m49.7,14.9q-.8,0-.6-.8t.8-.6.6.7-.8.7Z" style="fill:#fefefe; stroke-width:0px;"/><path d="m37.6,17c0-.8,0-.8.8-.7.4,0,.6.1.5.5,0,.2,0,.4,0,.6,0,.2,0,.3-.2.3-.3,0-.7,0-1,.1-.1,0-.1,0-.1-.2,0-.2,0-.4,0-.6Z" style="fill:#fefefe; stroke-width:0px;"/><path d="m50.8,20c.3,0,.7,0,1,0,.2,0,.3,0,.2.2,0,.1,0,.2,0,.3-.2.5-.2.6-.7.5-.3,0-.5,0-.8,0-.1,0-.2,0-.3-.2-.2-.5.2-.9.6-.9Z" style="fill:#fefefe; stroke-width:0px;"/><path d="m29.2,22.1c-.1-.4.1-.5.4-.5.3,0,.6-.1,1-.2.2,0,.4,0,.4.3,0,.7,0,.7-.9.8-.1,0-.3,0-.4,0-.5.1-.5.1-.5-.5Z" style="fill:#fdfdfd; stroke-width:0px;"/><path d="m56.2,27.7c-.4,0-.8-.2-1.2-.2-.2,0-.2-.1-.2-.3,0,0,0,0,0,0q0-.8.8-.5c.3,0,.6.2.9.3.3,0,.3.2.3.5,0,.3-.2.4-.4.3,0,0,0,0-.1,0Z" style="fill:#fcfcfb; stroke-width:0px;"/><path d="m32,23.1c0,.6-.1.7-.9.7-.2,0-.4.2-.5,0-.2-.3-.1-.6-.1-.9,0,0,0,0,.1,0,.4,0,.8-.2,1.1-.2.2,0,.3,0,.3.2,0,.1,0,.2,0,.3Z" style="fill:#fefdfd; stroke-width:0px;"/><path d="m30.1,23.6c0,.3,0,.4-.4.4-.4,0-.8.1-1.2.2-.1,0-.1,0-.1-.2,0-.2,0-.3,0-.5,0,0,0-.1,0-.2.4,0,.7-.4,1.1-.4.6,0,.6-.1.6.6Z" style="fill:#fefefe; stroke-width:0px;"/><path d="m27.7,20.6c.5,0,1-.2,1.6-.3.2,0,.2,0,.3.2,0,.5-.1.8-.6.9-.2,0-.4.1-.7.2-.3,0-.4-.1-.4-.3,0-.2,0-.4-.1-.6Z" style="fill:#fefefe; stroke-width:0px;"/><path d="m30.5,21.1s0,0,0,0c-.2,0-.4,0-.5,0,0-.2,0-.5,0-.7,0,0,0,0,0,0,.5,0,1-.1,1.5-.2.1,0,.2,0,.2.2,0,.7,0,.6-.6.8-.2,0-.4,0-.7,0Z" style="fill:#fff; stroke-width:0px;"/><path d="m58.7,16c-.1,0-.2,0-.3,0-.3,0-.4-.1-.3-.4,0-.2.1-.4,0-.6,0-.5.3-.3.5-.4,0,0,0,0,0,0,.2.1.6,0,.7.2,0,.3,0,.7-.2,1-.1.3-.4,0-.6.1Z" style="fill:#fffffe; stroke-width:0px;"/><path d="m57.6,18.4q0-.7.7-.7t.5.6s0,0,0,0c-.1.7-.3.8-1,.7-.1,0-.2,0-.2-.2,0-.2,0-.3,0-.5Z" style="fill:#fffffe; stroke-width:0px;"/><path d="m40.4,15.3q0,.6-.6.6t-.6-.6.6-.6.6.6Z" style="fill:#fff; stroke-width:0px;"/><path d="m54.7,15.4c.2,0,.5.1.7.2.1,0,.1.1.1.2,0,0,0,.2,0,.3-.2.8-.2.9-.3.8-.3-.2-.6,0-1-.2-.1,0,0,0,0-.2.2-.4.4-.7.4-1.1,0,0,0,0,.1,0Z" style="fill:#fefefe; stroke-width:0px;"/><path d="m49.3,21c-.7,0-.9-.1-.7-.8,0,0,0-.1.1-.1.4,0,.7,0,1.1,0,.2,0,.3.1.3.3,0,.6,0,.6-.6.6,0,0-.1,0-.1,0Z" style="fill:#fff; stroke-width:0px;"/><path d="m40.3,22.3h.4c.6,0,.6,0,.5.5,0,.2-.1.3-.3.3-.4,0-.8,0-1.3,0-.4,0-.2-.3-.2-.5,0-.2,0-.2.2-.2.2,0,.4,0,.7,0,0,0,0,0,0,0Z" style="fill:#fffefe; stroke-width:0px;"/><path d="m40.4,18.5q0,.6-.6.6t-.5-.6c0-.7,0-.7.7-.7.4,0,.5,0,.4.5,0,0,0,.1,0,.2Z" style="fill:#fff; stroke-width:0px;"/><path d="m42.9,13.6c0,.9,0,.8-.9.8-.2,0-.2,0-.2-.2,0-.3.1-.7,0-1,0,0,0-.1.1-.1,0,0,.1,0,.2,0,.6-.1.7,0,.7.7Z" style="fill:#fff; stroke-width:0px;"/><path d="m52.3,23c.3.1.7,0,1.1,0,.2,0,.3,0,.2.3-.2.7-.2.7-.9.5-.2,0-.4-.2-.7-.1,0,0,0,0,0,0-.1-.2,0-.4,0-.7,0-.2.2,0,.3-.1Z" style="fill:#fff; stroke-width:0px;"/><path d="m51.4,23.8c-.5,0-.8-.1-1.1-.2-.2,0-.1-.2-.1-.3,0-.6,0-.7.7-.5.2,0,.5,0,.7,0,.2,0,.2.2.2.3,0,0,0,.1,0,.2,0,.3,0,.4-.2.3Z" style="fill:#fcfafa; stroke-width:0px;"/><path d="m23.1,15.3c0,.2,0,.5,0,.7,0,.4-.4.8-.8.7-.1,0-.1-.1-.1-.2-.1-.3-.3-.7-.2-.9,0-.2.5-.2.8-.2,0,0,.2,0,.3,0Z" style="fill:#fff; stroke-width:0px;"/><path d="m48.3,23.4c0-.1,0-.2,0-.4,0-.4.1-.5.5-.5.2,0,.5,0,.7,0,.2,0,.3,0,.3.3,0,.2.2.5-.3.5-.4,0-.7,0-1.1,0,0,0,0,0-.2,0Z" style="fill:#fff; stroke-width:0px;"/><path d="m41.8,16.8c0,0,0-.1,0-.2,0-.3,0-.4.4-.4.8,0,.8,0,.6.8,0,.1,0,.4-.1.4-.3,0-.5,0-.8,0,0,0,0,0,0-.2,0-.1,0-.3,0-.4Z" style="fill:#fffefe; stroke-width:0px;"/><path d="m51.1,16.4c-.6,0-.6,0-.5-.5,0-.2,0-.3,0-.5,0-.2,0-.3.3-.3.7,0,.7,0,.7.7,0,.3,0,.7-.5.5Z" style="fill:#fbfbfa; stroke-width:0px;"/><path d="m40.3,21.3s0,0,0,.1c0,.5-.5.7-.9.5,0,0,0-.1,0-.2,0-.2,0-.4,0-.5,0-.3.1-.4.4-.4.6,0,.6,0,.6.5Z" style="fill:#fdfdfc; stroke-width:0px;"/><path d="m38.6,20.5c-.2,0-.3,0-.4,0-.1,0-.2,0-.3-.3,0-.2,0-.5,0-.5.2-.2.5-.2.8-.2.2,0,.3,0,.4.2,0,.2,0,.4,0,.6,0,.3-.3,0-.4.1Z" style="fill:#fefefd; stroke-width:0px;"/><path d="m25.9,26.5c0,.3,0,.6-.5.6-.2,0-.4.1-.6.2-.1,0-.3.1-.3,0,0-.2-.2-.5.1-.6.3-.1.6-.2.9-.3.3,0,.3,0,.3.2Z" style="fill:#f9f8f7; stroke-width:0px;"/><path d="m27.6,16.5s0,0,0,0c0,.5,0,.5-.5.6-.1,0,0,0,0-.1,0-.3-.2-.7-.2-1,0-.2,0-.3.2-.3.6,0,.6,0,.6.7Z" style="fill:#fefefe; stroke-width:0px;"/><path d="m22.6,18.7c.3,0,.5-.2.8-.2.1,0,.2,0,.2.1,0,.3,0,.6,0,.9,0,0,0,0-.1.1-.4.2-.8,0-.8-.4,0-.1,0-.3-.1-.4Z" style="fill:#fdfdfd; stroke-width:0px;"/><path d="m50.4,19.3c0-.2,0-.5,0-.7,0-.1,0-.2.2-.1,0,0,0,0,.1,0,.7,0,.7,0,.5.6,0,0,0,.2,0,.2,0,.3-.2.4-.5.4-.4,0-.2-.3-.2-.4Z" style="fill:#fcfbfb; stroke-width:0px;"/><path d="m31.4,18.5c.2,0,.3.1.3.4,0,.2,0,.3,0,.5,0,.1.2.2,0,.3-.2,0-.6.2-.7,0-.2-.3,0-.7,0-1.1,0-.2.2-.2.5-.2Z" style="fill:#fff; stroke-width:0px;"/><path d="m53.7,19.9c0-.4.1-.7.2-.9,0-.2.3-.1.5-.1.1,0,.3,0,.3.3,0,.3-.2.6-.2.9,0,0,0,.3-.2.2-.2,0-.5,0-.5-.3Z" style="fill:#fff; stroke-width:0px;"/><path d="m30.6,15.9c-.1-.3,0-.5.5-.6.3,0,.3,0,.4.3,0,.2,0,.4,0,.7,0,.3-.3.1-.4.2-.4.1-.4,0-.4-.3,0,0,0-.1,0-.2Z" style="fill:#fff; stroke-width:0px;"/><path d="m42.6,19.9c0,0,0,.1,0,.2,0,.5,0,.6-.6.5-.1,0-.2,0-.2-.2,0-.2,0-.4,0-.6,0-.3,0-.4.4-.4.5,0,.3.4.3.5Z" style="fill:#fefefe; stroke-width:0px;"/><path d="m39,22.6c.2.5-.2.4-.5.4-.4,0-.4-.1-.4-.5,0-.5.2-.4.5-.5.4,0,.4.2.4.5Z" style="fill:#fffffe; stroke-width:0px;"/><path d="m28,22c0,0,.2,0,.3,0,.6-.2.6,0,.6.3,0,.4-.2.8-.6.8-.1,0,0,0-.1-.1,0-.3-.1-.6-.2-1Z" style="fill:#fcfcfb; stroke-width:0px;"/><path d="m27.4,19.1c.5,0,.5,0,.7.4,0,.2,0,.3,0,.5,0,.2,0,.3-.2.4-.2,0-.3,0-.4-.2,0-.3-.1-.7-.2-1Z" style="fill:#fefdfd; stroke-width:0px;"/><path d="m41.8,23.1c0,0-.4.2-.4-.2,0-.6,0-.6.5-.6.1,0,.4-.1.4.2,0,.5,0,.7-.6.7Z" style="fill:#fff; stroke-width:0px;"/><path d="m50.2,22c0,0,0-.1,0-.2,0-.1,0-.3,0-.4.2,0,.4,0,.6,0,0,0,0,0,0,.2,0,.1,0,.2,0,.3,0,.3,0,.5-.5.5-.4,0,0-.4-.2-.4Z" style="fill:#f5f2f2; stroke-width:0px;"/><path d="m31.2,21.9c0-.3,0-.5.3-.5.4,0,.3.3.3.5.1.5-.3.4-.5.4-.3,0,0-.3-.2-.4Z" style="fill:#fefefe; stroke-width:0px;"/><path d="m53.8,22.2c0,.2,0,.5-.3.5,0,0-.2,0-.1-.1,0-.2,0-.4.3-.6,0,0,.3,0,.2.2Z" style="fill:#e5e1e0; stroke-width:0px;"/><path d="m32.3,13.4c0,0,.2-.2.2,0,0,.1,0,.3-.2.3,0,0,.1-.2,0-.2Z" style="fill:#ede8e4; stroke-width:0px;"/><path d="m57.5,25.9s0,0,0,0c0-.1.1-.2.3-.2,0,.3-.1.4-.4.2Z" style="fill:#746c67; stroke-width:0px;"/><path d="m57.9,25.6c0,0-.2.1-.3.2,0,0,0-.2,0-.3.1,0,.2,0,.3.1Z" style="fill:#948d8a; stroke-width:0px;"/><path d="m44.2,23.2c.2,0,.3,0,.5,0,0,0,0,.1,0,.1-.2,0-.3.1-.5,0Z" style="fill:#90807f; stroke-width:0px;"/><path d="m53.6,90.2c.2.3.2.7.3,1,0,.2.2.3.4.4.4,0,.8.2,1.2.3-.5,0-.9.2-1.3.3-.2,0-.3.1-.4.4,0,.4-.2.8-.3,1.4-.1-.5-.2-.9-.3-1.4,0-.2-.1-.3-.4-.4-.3,0-.7-.2-1.1-.2.4-.2.8-.3,1.2-.4.1,0,.2-.1.3-.3,0-.4.2-.7.3-1.1Z" style="fill:#fff; stroke-width:0px;"/><path d="m27.4,94.1c-.1-.5-.2-.9-.3-1.3,0-.2-.1-.3-.4-.4-.3,0-.7-.2-1.1-.2.4-.2.8-.3,1.2-.4.1,0,.2,0,.3-.3,0-.4.2-.7.3-1.1.2.3.2.7.3,1,0,.3.2.4.4.4.4,0,.7.2,1.2.3-.5,0-.9.2-1.2.3-.2,0-.3.1-.4.4,0,.4-.2.8-.3,1.4Z" style="fill:#fff; stroke-width:0px;"/><path d="m42.2,90.8c.1.2.1.3,0,.4,0-.1,0-.3,0-.4Z" style="fill:#87b4dd; stroke-width:0px;"/><path d="m39.6,83.4c-.8-1.1-2.5-1-3.2-.2-.5.6-.5,1.6,0,2.2.4.5,1.7.8,2.3.3.2.6-.2,1.5-.7,1.8-.2,0-.3.1-.5,0-.3,0-.3-.1-.2-.4.1-.2.2-.4,0-.6-.1-.3-.4-.3-.7-.3-.2,0-.4,0-.5.3-.3.7.2,1.4.9,1.4.3,0,.5,0,.8,0,.6,0,1-.2,1.4-.6.9-1,1-2.8.2-3.9Zm-1,1.5c0,.2-.2.4-.5.4-.3,0-.5,0-.6-.3-.2-.3-.3-.6-.3-.9,0-.3,0-.6.3-.8.3-.3.8-.1,1,.2.2.4.3.9,0,1.3Z" style="fill:#010101; stroke-width:0px;"/><path d="m35.5,37.8c-1.4.3-3,2.2-4.7,2.5-1.2-.8-.7-5.7-2.5-4.3,0,0,0,0,0,0h0s0,0,0,0c-.4,1.2-.4,2.4-.4,3.7s0,.9,0,1.2c.4.4,1,.7,1.2,1.2.5,1.2.2,2.6,2.4,2.8.3,0,.4.1.5.4,0,1.5,1.5,0,2.3,0,1.3-.5-1.1-1.1-1.5-1.6,0,0,0,0,0,0-.2,0-.4-.1-.6-.3-1-.9.8-2.3,1.4-2.6.7-.4,2.3-2.7,2-3.2Z" style="fill:#fff; stroke-width:0px;"/><path d="m36.1,73.9c-.4-.3-.7-.8-1.3-.9-.2,0-.4,0-.6,0-.2,0-.3,0-.3-.2,0-.2,0-.2.2-.3.2-.1.4-.2.7-.3,1.1-.2,1.9-.9,2.7-1.6.2-.2.3-.4.5-.6.4-.5.7-.9,1.4-.8.4,0,.7,0,1.1,0,.3,0,.4-.4.7-.5.5-.1.5-.6.8-.9.4-.5.7-1,1.1-1.5.5-.6,1.2-1,1.9-.7.4.1.6.4.8.8.4.6.7,1.2,1,1.7,0,0,0,.1.2.1.4,0,.6.3.9.6.5.6,1,1.3,1.8,1.7.4.2.7.5,1.2.5.2,0,.4,0,.5-.3.1-.5.1-1,0-1.5,0-.4-.3-.8-.6-1-.6-.5-1.1-1-1.8-1.4-.8-.5-1.6-1-2.4-1.5-.5-.3-1-.5-1.5-.7-.3-.2-.7,0-1.1-.3-.2-.1-.4-.3-.5-.5,0-.1,0-.3.3-.3.2,0,.4,0,.6.1.7.3,1.4.4,2.1.5.3,0,.7,0,1,0,.2,0,.5,0,.5-.3,0-.2,0-.4-.1-.6-.2-.4-.6-.5-1-.7-.2-.1-.4-.3-.6-.3,0,0-.2-.1-.2-.3,0-.1.1-.2.3-.2.8,0,1.6-.1,2.3.1.4.1.7.4,1,.7.3.2.5.5.8.8.1.1.2.2.4.2.2,0,.3,0,.3-.2,0-.6,0-1.1,0-1.7,0,0,0-.1,0-.2,0-1.1,0-2.1,0-3.2,0-1.1,0-2.1,0-3.2,0-.4-.2-.6-.4-.9-.2-.3-.4-.4-.8-.4-.1,0-.3,0-.4-.1-.7-.3-1.4-.2-2,.3,0,0-.1.1-.2.2-.2.1-.3.3-.5.1-.2-.2-.2-.4,0-.6.1-.3.2-.6.5-.8.4-.4.7-.9,1.3-1.1.2,0,.3-.1.4-.1.3,0,.5,0,.9,0-.5-.5-.5-1.1-.4-1.6,0-.5,0-1,0-1.5,0-.2-.2-.4-.3-.5,0,0-.2-.2,0-.3,0-.1.2-.2.3-.2.3,0,.5.1.7.3.8.6,1.5,1.2,2.1,2,.2.3.4.3.7,0,.2-.3.5-.5.7-.8.1-.2.3-.4.2-.6,0-.2,0-.4.2-.4.2,0,.3.3.2.5,0,.2,0,.5,0,.7,0,.2.1.2.3.1.5-.3,1.1-.1,1.7-.1.3,0,.3.6,0,.9-.4.4-.9.8-1.4,1-.2,0-.3.1-.5.3-.1.1-.3.1-.4.2-.4.2-.6.5-.6.9,0,.4-.3.7-.6,1-.3.4-.9.7-1.1,1.2,0,.2-.1.3-.1.5,0,.8,0,1.7,0,2.5,0,1.2.2,2.3.2,3.5,0,.9.1,1.8.1,2.7,0,.3.2.4.4.5.7.2,1.3.4,2,.5.7,0,1.2-.3,1.7-.6.3-.2.6-.5.9-.7.1-.1.3-.1.4,0,.1.1.1.2,0,.4-.3.7-.8,1.1-1.4,1.6-.5.4-1,.8-1.6,1-.3,0-.5.2-.8.4-.5.2-.7.5-1,.9-.1.2-.2.5-.2.8-.2.6-.2,1.3-.3,1.9,0,.3,0,.5.1.6.2.1.5,0,.6-.1.3-.2.5-.4.6-.7.3-.6.7-1.1,1.1-1.6.5-.7,1.9-.9,2.4,0,.2.3.5.5.6.9.2.4.2.7,0,1.1-.2.7,0,1.4.4,1.9.3.3.7.6,1,.9.3.3.6.6.5,1.1,0,.5-.3.7-.8.6-.5-.1-1-.3-1.6-.2-.5,0-.9,0-1.4.2-.4,0-.8,0-1.2,0-.3,0-.4,0-.5.3,0,.2-.2.3-.5.2-.2,0-.4,0-.5,0-.6,0-1.1,0-1.6-.3-.4-.2-.5-.5-.7-.9-.3-.6-1-.8-1.7-.6-.6.2-1.2.6-2,.5-.6-.1-1.1.3-1.6.6-.6.5-1.2.7-1.9,1-.9.3-1.8,0-2.7.4-.5.2-1.1,0-1.7,0-.5,0-1-.2-1.5-.4-.5-.2-.8-.6-1.1-1.1,0,0,0-.1-.1-.2-.1-.2-.3-.3-.4-.4Z" style="fill:#146735; stroke-width:0px;"/><path d="m36.1,73.9c.2,0,.4.1.4.4-.2,0-.4-.2-.4-.4Z" style="fill:#afb2a7; stroke-width:0px;"/><path d="m54,51.2c0-.2.3-.2.4-.2-.1.2-.3.2-.4.2Z" style="fill:#146735; stroke-width:0px;"/><path d="m30.4,55.6h0c-.3-1.5-.4-.9-1.8-1-.4-.2-1.4-.8-.5-1.1.3,0,0-.9-.2-.9,0,0-.2-.5,0-.6s.6,0,.7,0c.2.2.6.2.8,0,.1,0,.5-.8.2-1-.4-.3-2.2-.7-3,.2-.3.5-.2,1.3-.1,1.4.2,0,.3.2.2.4h0c0,.2-.3.3-.3.3-.7.9-.2,2.2.9,2.6.5.1,1.4.2,2.1.1s.9-.3.9-.4Zm-4-3.4s0,0,0,0h0s0,0,0,0h0Z" style="fill:#fff; stroke-width:0px;"/><path d="m48.7,72.3c-.1.2-.2.3-.2.5,0,.1-.1.2-.3.3-.1,0-.2,0-.3-.2,0-.3-.3-.3-.6-.3-.4,0-.9,0-1.3-.1-.3-.1-.5-.4-.7-.6-.3-.4-.6-.8-1.2-.7-.3,0-.4-.3-.5-.5-.1-.4-.3-.6-.6-.9-.1-.1-.2-.3-.2-.5.1-.4,0-.7-.5-.9-.3-.1-.3-.3,0-.5.3-.2.5-.5.6-.8.2-.4.5-.7.7-1,.3-.3,1.2-.2,1.3.1.2.4.5.8.7,1.2.2.4.3.7.7,1,.3.3.7.3,1,.6.2.2.4.5.6.7.2.2.3.4.5.5.3.2.3.3,0,.6,0,0-.2.2-.2.3-.2.4-.2.3-.6.2-.3-.1-.3-.3-.3-.6,0-.4-.4-1-.8-1.1-.1,0-.8.3-.8.4,0,.1,0,.2.1.3.2,0,.3.2.4.3.3.3.3.5,0,.8-.2.2,0,.6.1.5.7,0,1.4.4,2.2.3Z" style="fill:#fff; stroke-width:0px;"/><path d="m54.6,72.6c-.7,0-1.2-.4-1.5-1,0,0-.1-.2,0-.3.3-.2.3-.5.5-.7.4-.3.7-.7.9-1.2.1-.3.3-.6.5-.9.4-.5,1.1-.4,1.6,0,.5.4.5.8,0,1.1-.5.3-.8.9-1.1,1.3-.2.3-.2.7-.2,1,0,.5,0,.6-.5.5,0,0,0,0-.2,0Z" style="fill:#fff; stroke-width:0px;"/><path d="m38.5,75c-.3-.2-.6,0-.8-.4-.3-.4-.3-.4-.3-.9,0-.1,0-.3,0-.4,0-.2,0-.3-.2-.3-.2,0-.3,0-.3.2,0,.3-.2.2-.3,0-.3-.3-.6-.6-1-.9.4,0,.7-.2,1-.4,0,0,.2,0,.2-.2.2-.5.8-.8,1.1-1.2,0,.3,0,.4-.1.6-.2.1-.3.2-.4.5,0,.2.4.9.6.9.2,0,.2-.1.3-.2,0-.4.3-.8.5-1.1.2-.3,0-.6-.2-.8-.1-.2-.2-.3,0-.5.2-.2.4-.4.8-.3,0,0,0,0,.1,0,0,.4.4.8.5,1.2,0,.2,0,.3-.2.5-.5.3-.7.7-.7,1.3,0,.3-.1.6-.4.7-.3.2-.3.4-.2.6,0,.4,0,.7.2,1.1Z" style="fill:#fff; stroke-width:0px;"/><path d="m53.7,49.2c0,.2,0,.3,0,.5-.3.6-.5,1.2-1.1,1.6-.2.1-.2.5-.3.8,0,.1.1.1.2,0,.1-.1.2-.2.4-.3,0,.6-.4,1.1-.9,1.4,0,0-.1,0-.2,0-.2-.1-.5-.8-.4-1,0,0,0-.1,0-.2,0-.7.3-.9.8-1.3.5-.4,1-.7,1.3-1.3,0-.1.2-.2.3-.3Z" style="fill:#fff; stroke-width:0px;"/><path d="m47.4,52.7c.5-.3.9-.9,1.5-.8,0,0,0,0,.1,0,.5-.1,1,.3,1,.7,0,.1,0,.2-.1.3-.1.1-.2,0-.2,0-.3-.2-.6,0-.9-.1-.2,0-.5,0-.7,0-.2,0-.5,0-.7,0Z" style="fill:#fff; stroke-width:0px;"/><path d="m50,48.3c.3.1.5.3.7.6.1.2.3.4.5.5.4.2.5.5.6.8,0,.1,0,.2-.1.3-.1,0-.3,0-.4,0-.2-.5-.6-.8-1-1.1-.4-.3-.5-.7-.4-1.1Z" style="fill:#fff; stroke-width:0px;"/><path d="m49.7,50.2c0-.2,0-.3.1-.4.2,0,.2.1.3.2.3.3.6.5.8.9,0,.2.2.3,0,.5-.2.1-.3,0-.5,0-.5-.3-.7-.7-.8-1.2Z" style="fill:#fff; stroke-width:0px;"/><path d="m55.4,49.3c.2,0,.3,0,.4,0,0,.1,0,.2-.2.3-.4.2-.8.5-1.3.7,0,0-.1.1-.2,0,0,0,0-.2,0-.2.2-.7.8-.7,1.2-.8Z" style="fill:#fff; stroke-width:0px;"/><path d="m56.7,71.2c0,0-.2,0-.1-.1.1-.3.2-.6.4-.8,0,0,0-.1.1,0,0,0,0,0,0,.1,0,.1-.3.8-.5.9,0,0,0,0,0,0Z" style="fill:#fff; stroke-width:0px;"/><path d="m30.8,93.6v-3.2h1.8v.7h-1v.5h.8v.7h-.8v.6h1v.7h-1.8Z" style="fill:#020202; stroke-width:0px;"/><path d="m33.9,93.7c-.8,0-1.1-.5-1.1-1v-.2h.8c0,.2,0,.5.3.5s.3,0,.3-.2c0-.5-1.3-.8-1.3-1.7s.4-.8,1-.8,1.1.5,1.1,1h-.8c0-.2,0-.4-.3-.4s-.2,0-.2.2c0,.4,1.3.8,1.3,1.7s-.4.9-1.1.9Z" style="fill:#020202; stroke-width:0px;"/><path d="m35.3,93.6v-3.2h.9c.6,0,1,.2,1,1s-.4,1-1.1,1v1.2h-.8Zm.8-2.6v.7h.1c.2,0,.2-.2.2-.4s0-.3-.2-.3h-.1Z" style="fill:#020202; stroke-width:0px;"/><path d="m37.5,93.6v-3.2h1.8v.7h-1v.5h.8v.7h-.8v.6h1v.7h-1.8Z" style="fill:#020202; stroke-width:0px;"/><path d="m39.6,93.6v-3.2h1.1c.6,0,1,.3,1,.9s-.2.6-.3.7c.3.3.3.5.3.9s0,.5.1.7h-.8c-.1-.2-.1-.6-.1-.8,0-.3,0-.5-.3-.5s0,0,0,0v1.3h-.8Zm.8-2.6v.7h.1c.2,0,.3-.1.3-.4s0-.4-.3-.4h0Z" style="fill:#020202; stroke-width:0px;"/><path d="m41.8,93.6l.6-3.2h1l.5,3.2h-.8v-.4h-.4v.4h-.9Zm1.1-2.2l-.2,1.1h.3l-.2-1.1Z" style="fill:#020202; stroke-width:0px;"/><path d="m44.1,93.6v-3.2h.8l.5,1.2v-1.2h.8v3.2h-.8l-.5-1.5v1.5h-.8Z" style="fill:#020202; stroke-width:0px;"/><path d="m46.5,91.6c0-.6.2-1.2,1.1-1.2s1.1.5,1.1,1.2v.2h-.8v-.3c0-.2,0-.4-.2-.4s-.2.2-.2.4v1.1c0,.3,0,.5.2.5s.2-.2.2-.6v-.2h.8v.5c0,.5-.3,1-.9,1,0,0-.1,0-.2,0,0,0,0,.1,0,.1,0,0,0,0,.1,0,.1,0,.3,0,.3.3s-.2.3-.4.3-.2,0-.3,0v-.2c.2,0,.2,0,.3,0,.1,0,.2,0,.2-.1,0,0,0-.1-.2-.1s0,0-.1,0c0,0,0-.3,0-.3-.3,0-.8-.3-.8-1,0-.3,0-1.1,0-1.1Z" style="fill:#020202; stroke-width:0px;"/><path d="m48.8,93.6l.6-3.2h1l.5,3.2h-.8v-.4h-.4v.4h-.9Zm1.1-2.2l-.2,1.1h.3l-.2-1.1Z" style="fill:#020202; stroke-width:0px;"/><path d="m75.7,44.2v-24h5.6c3.6,0,6.4,1.4,6.4,7.3s-2.7,7.6-7,7.6v9.2h-4.9Zm4.9-19.5v5.5h.7c1.3,0,1.5-1.4,1.5-2.9s-.3-2.6-1.5-2.6h-.6Z" style="fill:#231f20; stroke-width:0px;"/><path d="m89.4,44.2v-16.9h4.5v2.3c.9-1.3,1.6-2.6,3.5-2.6s.4,0,.7.1v5.8c-.7-.1-1.3-.3-2-.3-2,0-2.1,1.5-2.1,4.4v7.3h-4.5Z" style="fill:#231f20; stroke-width:0px;"/><path d="m105.8,44.5c-4.3,0-5.9-3.4-5.9-7.4v-2.7c0-4.4,1.8-7.6,5.6-7.6s5.7,3,5.7,7.8v2.6h-6.9c0,1.3,0,3,1.4,3s1.2-1.1,1.3-1.7h4.2c0,1.9-.9,6-5.5,6Zm-.2-13.5c-1.2,0-1.2,1.5-1.2,2.7h2.5c0-1.1,0-2.7-1.3-2.7Z" style="fill:#231f20; stroke-width:0px;"/><path d="m114.2,44.2v-12.2h-1.4v-4.8h1.4v-.8c0-5.1,1.2-7,5.1-7h1.2v4.7h-.5c-1.3,0-1.3.9-1.3,2.2v.9h1.8v4.8h-1.8v12.2h-4.5Z" style="fill:#231f20; stroke-width:0px;"/><path d="m128.2,44.5c-4.3,0-5.9-3.4-5.9-7.4v-2.7c0-4.4,1.8-7.6,5.6-7.6s5.7,3,5.7,7.8v2.6h-6.9c0,1.3,0,3,1.4,3s1.2-1.1,1.3-1.7h4.2c0,1.9-.9,6-5.5,6Zm-.2-13.5c-1.2,0-1.2,1.5-1.2,2.7h2.5c0-1.1,0-2.7-1.3-2.7Z" style="fill:#231f20; stroke-width:0px;"/><path d="m136.2,24.9v-4.8h4.4v4.8h-4.4Zm0,19.2v-16.9h4.4v16.9h-4.4Z" style="fill:#231f20; stroke-width:0px;"/><path d="m144.9,44.2c-.8-2-.8-4-.8-8.2v-4h-1.6v-4.8h1.6v-5.6h4.4v5.6h1.6v4.8h-1.6v5.3c0,4.4.4,5.8,1,6.9h-4.5Z" style="fill:#231f20; stroke-width:0px;"/><path d="m155.2,44.5c-2,0-3.1-2.1-3.1-4.8v-12.5h4.4v9.4c0,1.7,0,2.9.8,2.9,1.3,0,1.3-1.7,1.3-3.1v-9.2h4.5v16.9h-4.5v-2.3c-.5,1.1-1.4,2.6-3.4,2.6Z" style="fill:#231f20; stroke-width:0px;"/><path d="m165.6,44.2v-16.9h4.5v2.3c.9-1.3,1.6-2.6,3.5-2.6s.4,0,.7.1v5.8c-.7-.1-1.3-.3-2-.3-2,0-2.1,1.5-2.1,4.4v7.3h-4.5Z" style="fill:#231f20; stroke-width:0px;"/><path d="m179.6,44.5c-2,0-3.8-1.7-3.8-4.9,0-5.3,4.3-5.9,6.9-6.5,0-.2,0-.5,0-.7,0-1-.5-1.5-1.2-1.5s-1.1.8-1.3,1.3h-4.1c0-2.3,1.6-5.3,5.3-5.3s5.6,1.8,5.6,5.8v7.4c0,.5,0,1.3,0,1.9,0,1.1.2,1.4.5,2.2h-4.5c-.1-.4-.3-1-.3-1.9-.4.8-1.3,2.2-3.2,2.2Zm.7-5.6c0,.6.4,1.1,1,1.1s1.2-.8,1.5-1.1v-2.4c-1.2.3-2.4.9-2.4,2.4Z" style="fill:#231f20; stroke-width:0px;"/><path d="m200.6,44.5c-2.8,0-4-3.6-4-9.1s1.1-8.6,3.9-8.6,2.3,1.2,3,2.1v-8.8h4.4v24h-4.4v-2c-.5,1.2-1.2,2.4-2.9,2.4Zm.6-8.9c0,1.7,0,4.2,1.1,4.2s1.2-2.1,1.2-4.2-.2-4-1.1-4-1.1,1.9-1.1,4Z" style="fill:#231f20; stroke-width:0px;"/><path d="m216.5,44.5c-4.3,0-5.9-3.4-5.9-7.4v-2.7c0-4.4,1.8-7.6,5.6-7.6s5.7,3,5.7,7.8v2.6h-6.9c0,1.3,0,3,1.4,3s1.2-1.1,1.3-1.7h4.2c0,1.9-.9,6-5.5,6Zm-.2-13.5c-1.2,0-1.2,1.5-1.2,2.7h2.5c0-1.1,0-2.7-1.3-2.7Z" style="fill:#231f20; stroke-width:0px;"/><path d="m76,85v-28.2h13.4v5.9h-7.1v4.6h5.8v6.2h-5.8v5.2h7.4v6.2h-13.7Z" style="fill:#231f20; stroke-width:0px;"/><path d="m99.3,85.9c-5.6,0-7.8-4.6-7.8-8.6v-1.4h5.8c0,1.9,0,4.4,2.3,4.4s2-.8,2-2.1c0-4-9.8-7.1-9.8-15s3-7.2,7.4-7.2,7.8,4.1,7.8,9h-5.6c0-1.7-.1-3.8-2.2-3.8s-1.7.6-1.7,1.8c0,3.4,9.8,6.6,9.8,14.8s-3.1,8.1-8.1,8.1Z" style="fill:#231f20; stroke-width:0px;"/><path d="m109.6,85v-28.2h6.7c4.3,0,7.7,1.6,7.7,8.5s-3.2,8.9-8.5,8.9v10.7h-5.9Zm5.9-22.8v6.5h.8c1.6,0,1.8-1.7,1.8-3.4s-.4-3-1.8-3h-.8Z" style="fill:#231f20; stroke-width:0px;"/><path d="m125.5,85v-28.2h13.4v5.9h-7.1v4.6h5.8v6.2h-5.8v5.2h7.4v6.2h-13.7Z" style="fill:#231f20; stroke-width:0px;"/><path d="m141.2,85v-28.2h8c4.7,0,7.1,2.3,7.1,8s-1.4,5.2-2.4,6.2c2.5,2.7,2.5,4.8,2.5,8s0,4.5.9,5.9h-6.1c-.9-1.6-1-5.3-1-7.3,0-3-.5-4.1-2.1-4.1s-.4,0-.7,0v11.3h-6.3Zm6.3-22.8v6.4h.8c1.7,0,2.1-1.3,2.1-3.3s-.6-3.1-2.2-3.1h-.6Z" style="fill:#231f20; stroke-width:0px;"/><path d="m158.1,85l4.1-28.2h7.4l3.9,28.2h-5.8l-.5-3.6h-2.7l-.5,3.6h-5.8Zm7.8-19.3l-1.3,10h2.6l-1.2-10Z" style="fill:#231f20; stroke-width:0px;"/><path d="m175.1,85v-28.2h6.1l3.4,10.7v-10.7h5.6v28.2h-5.7l-3.8-13.2v13.2h-5.7Z" style="fill:#231f20; stroke-width:0px;"/><path d="m192.6,66.9c0-5.2,1.2-10.9,7.9-10.9s7.8,4.2,7.8,10.2v2.1h-6.1v-2.6c0-1.7,0-3.9-1.8-3.9s-1.5,2.1-1.5,3.8v9.2c0,2.6,0,4.8,1.6,4.8s1.7-2,1.7-5.1v-2h6.1v4.2c0,4.7-2,8.4-6.6,9.1-.3,0-1,0-1.3,0,0,.3,0,1.1,0,1.1.3,0,.6,0,.8,0,1,0,2.1.6,2.1,2.3s-1.2,2.9-3.2,2.9-1.5-.2-2.5-.6l.7-1.4c.4.2.9.4,1.4.4.8,0,1.1-.6,1.1-.9,0-.6-.4-1.1-1.1-1.1s-.6,0-1,.2c0,0,0-2.4,0-3-1.9.1-6-2.7-6.2-8.8,0-2.5,0-10,0-10Z" style="fill:#231f20; stroke-width:0px;"/><path d="m209.6,85l4.1-28.2h7.4l3.9,28.2h-5.8l-.5-3.6h-2.7l-.5,3.6h-5.8Zm7.8-19.3l-1.3,10h2.6l-1.2-10Z" style="fill:#231f20; stroke-width:0px;"/></svg>